<svg xmlns="http://www.w3.org/2000/svg" id="ac-remote" enable-background="new 0 0 64 64" viewBox="0 0 64 64">
  <path d="M42.68,0H21.32c-1.77,0-3.21,1.45-3.21,3.21v57.58c0,1.78,1.45,3.21,3.21,3.21h21.37c1.77,0,3.21-1.44,3.21-3.21V3.21
		C45.89,1.45,44.45,0,42.68,0z M29.38,21.28c0.02,0.05,0.01,0.1,0.02,0.16c0.02,0.07,0.04,0.14,0.03,0.23
		c0,0.06-0.02,0.12-0.03,0.19c-0.02,0.07-0.02,0.13-0.05,0.2c-0.03,0.07-0.08,0.13-0.12,0.2c-0.03,0.04-0.05,0.08-0.08,0.12
		l-2.96,2.95c-0.02,0.03-0.06,0.04-0.09,0.06c-0.02,0.02-0.04,0.05-0.07,0.07c-0.04,0.03-0.08,0.04-0.12,0.06
		c-0.03,0.01-0.06,0.03-0.09,0.04c-0.11,0.04-0.23,0.06-0.34,0.06h-0.01c-0.11,0-0.23-0.02-0.34-0.06
		c-0.02-0.01-0.05-0.02-0.07-0.03c-0.1-0.04-0.21-0.11-0.3-0.2c0,0-0.01,0-0.01-0.01c-0.01-0.01-0.01-0.02-0.02-0.03
		c-0.04-0.04-0.08-0.08-0.11-0.13c-1.89-2.92-1.89-6.68,0-9.59c0.02-0.03,0.05-0.05,0.07-0.08c0.03-0.02,0.04-0.06,0.06-0.08
		c0.03-0.03,0.06-0.04,0.08-0.06c0.06-0.04,0.11-0.08,0.18-0.11c0.06-0.03,0.11-0.05,0.18-0.07c0.06-0.02,0.12-0.03,0.2-0.04
		c0.06,0,0.12-0.01,0.19,0c0.07,0,0.13,0.02,0.2,0.04c0.07,0.01,0.13,0.04,0.2,0.07c0.02,0.01,0.06,0.02,0.08,0.03
		c0.03,0.02,0.05,0.05,0.08,0.08c0.03,0.02,0.06,0.03,0.09,0.06l2.95,2.95c0.04,0.04,0.05,0.08,0.08,0.12
		c0.05,0.06,0.1,0.12,0.13,0.2c0.02,0.06,0.03,0.12,0.04,0.2c0.02,0.06,0.04,0.12,0.04,0.19c0,0.08-0.02,0.15-0.03,0.23
		c-0.01,0.05-0.01,0.1-0.03,0.15C29.16,20.04,29.16,20.7,29.38,21.28z M26.76,26.83c0-0.07,0.02-0.13,0.03-0.2
		c0.02-0.06,0.05-0.12,0.08-0.19c0.01-0.03,0.01-0.06,0.03-0.09c0.02-0.03,0.05-0.05,0.08-0.08c0.02-0.03,0.03-0.06,0.06-0.09
		L30,23.23c0.03-0.03,0.07-0.05,0.11-0.07c0.06-0.05,0.13-0.1,0.21-0.14c0.05-0.02,0.11-0.02,0.17-0.04
		c0.07-0.02,0.14-0.04,0.22-0.04c0.07,0,0.14,0.02,0.22,0.03c0.05,0.01,0.11,0.01,0.17,0.03c0.59,0.21,1.25,0.21,1.85-0.01
		c0.05-0.02,0.1-0.01,0.15-0.02c0.08-0.01,0.14-0.03,0.23-0.03c0.06,0,0.12,0.02,0.2,0.03c0.06,0.02,0.12,0.03,0.19,0.05
		c0.07,0.03,0.13,0.08,0.2,0.13c0.04,0.03,0.08,0.04,0.12,0.08l2.95,2.95c0.03,0.02,0.04,0.06,0.06,0.09
		c0.02,0.02,0.05,0.04,0.07,0.07c0.02,0.03,0.02,0.06,0.04,0.09c0.03,0.06,0.05,0.12,0.07,0.2c0.02,0.06,0.03,0.12,0.04,0.19
		c0,0.06,0,0.13-0.01,0.2c0,0.06-0.01,0.12-0.03,0.19c-0.02,0.06-0.05,0.12-0.08,0.19c-0.03,0.06-0.06,0.11-0.11,0.17
		c-0.02,0.03-0.03,0.06-0.05,0.08c-0.02,0.03-0.06,0.04-0.09,0.06c-0.02,0.02-0.04,0.05-0.07,0.07c-1.46,0.95-3.13,1.42-4.8,1.42
		c-1.66,0-3.33-0.47-4.79-1.41c-0.03-0.02-0.05-0.05-0.07-0.07c-0.03-0.03-0.07-0.04-0.09-0.06c-0.03-0.03-0.04-0.06-0.06-0.08
		c-0.04-0.05-0.08-0.11-0.11-0.18c-0.03-0.05-0.05-0.11-0.07-0.18c-0.02-0.06-0.03-0.12-0.04-0.2
		C26.76,26.95,26.75,26.89,26.76,26.83z M36.72,33.36c0-0.57,0.45-1.03,1.03-1.03h4.44c0.58,0,1.03,0.46,1.03,1.03v3.27
		c0,0.57-0.45,1.03-1.03,1.03h-4.44c-0.58,0-1.03-0.46-1.03-1.03V33.36z M39.42,25.16c-0.04,0.05-0.08,0.09-0.12,0.13
		c0,0.01-0.01,0.02-0.02,0.03c0,0.01-0.01,0.01-0.01,0.01c-0.09,0.08-0.19,0.16-0.3,0.2c-0.02,0.01-0.05,0.02-0.07,0.03
		c-0.11,0.04-0.23,0.06-0.34,0.06c0,0,0,0-0.01,0c-0.11,0-0.23-0.02-0.34-0.06c-0.03-0.01-0.06-0.03-0.09-0.04
		c-0.04-0.02-0.08-0.03-0.12-0.06c-0.03-0.02-0.04-0.05-0.07-0.07c-0.03-0.02-0.07-0.03-0.09-0.06l-2.95-2.95
		c-0.04-0.04-0.06-0.08-0.09-0.12c-0.04-0.06-0.09-0.12-0.12-0.2c-0.03-0.06-0.03-0.12-0.05-0.2c-0.01-0.06-0.03-0.12-0.03-0.19
		c0-0.08,0.01-0.15,0.03-0.23c0.01-0.05,0-0.1,0.02-0.16c0.22-0.59,0.22-1.25,0-1.85c-0.02-0.05-0.01-0.1-0.02-0.15
		c-0.02-0.07-0.03-0.14-0.03-0.23c0-0.06,0.02-0.12,0.03-0.19c0.02-0.07,0.03-0.13,0.05-0.2c0.03-0.07,0.08-0.12,0.12-0.19
		c0.03-0.04,0.05-0.09,0.09-0.13l2.95-2.95c0.02-0.03,0.06-0.04,0.09-0.06c0.03-0.02,0.04-0.05,0.07-0.07
		c0.03-0.02,0.06-0.02,0.09-0.04c0.06-0.03,0.12-0.05,0.2-0.07c0.06-0.02,0.12-0.03,0.19-0.04c0.07,0,0.12,0,0.2,0.01
		c0.06,0,0.13,0.01,0.2,0.03c0.06,0.02,0.11,0.05,0.17,0.07c0.07,0.04,0.12,0.07,0.19,0.12c0.02,0.02,0.05,0.03,0.07,0.05
		c0.03,0.03,0.04,0.06,0.06,0.09c0.02,0.03,0.06,0.04,0.08,0.08C41.3,18.48,41.3,22.25,39.42,25.16z M37.24,13.89
		c0,0.07-0.02,0.13-0.03,0.2c-0.02,0.06-0.04,0.12-0.08,0.2c-0.01,0.02-0.01,0.05-0.03,0.08c-0.03,0.05-0.07,0.09-0.11,0.13
		c-0.01,0.01-0.01,0.03-0.02,0.04l-2.93,2.92L34,17.5c-0.03,0.03-0.07,0.05-0.11,0.07c-0.06,0.05-0.12,0.1-0.21,0.14
		c-0.05,0.02-0.11,0.03-0.18,0.04c-0.06,0.02-0.13,0.04-0.21,0.04c-0.01,0-0.02,0-0.02,0c-0.07,0-0.13-0.02-0.21-0.03
		c-0.05-0.01-0.09-0.01-0.14-0.02c-0.6-0.22-1.26-0.22-1.85-0.01c-0.12,0.05-0.24,0.06-0.35,0.06c-0.12,0-0.25-0.02-0.35-0.06
		c-0.04-0.01-0.07-0.03-0.1-0.05c-0.08-0.04-0.15-0.08-0.23-0.14c-0.01-0.02-0.04-0.02-0.05-0.04l-2.95-2.95
		c-0.03-0.03-0.04-0.06-0.06-0.09c-0.03-0.03-0.06-0.05-0.08-0.08c-0.02-0.03-0.02-0.06-0.03-0.08c-0.03-0.07-0.06-0.13-0.08-0.2
		c-0.01-0.06-0.03-0.12-0.03-0.2c-0.01-0.06,0-0.12,0-0.19c0.01-0.07,0.02-0.13,0.04-0.2c0.02-0.06,0.04-0.11,0.07-0.18
		c0.03-0.06,0.07-0.12,0.11-0.18c0.02-0.02,0.03-0.05,0.06-0.08c0.02-0.02,0.06-0.03,0.09-0.06c0.02-0.02,0.04-0.05,0.07-0.07
		c2.91-1.88,6.67-1.88,9.58,0c0.03,0.02,0.05,0.05,0.08,0.07c0.03,0.03,0.06,0.04,0.09,0.06c0.02,0.03,0.03,0.06,0.05,0.08
		c0.04,0.05,0.08,0.11,0.11,0.18c0.03,0.06,0.05,0.11,0.07,0.18c0.02,0.06,0.03,0.12,0.04,0.2C37.25,13.77,37.25,13.83,37.24,13.89z
		 M20.78,5.33c0-0.58,0.45-1.03,1.03-1.03h4.44c0.58,0,1.03,0.45,1.03,1.03v3.26c0,0.57-0.45,1.03-1.03,1.03h-4.44
		c-0.58,0-1.03-0.46-1.03-1.03V5.33z M20.77,33.36c0-0.57,0.46-1.03,1.03-1.03h4.45c0.57,0,1.03,0.46,1.03,1.03v3.27
		c0,0.57-0.46,1.03-1.03,1.03H21.8c-0.57,0-1.03-0.46-1.03-1.03V33.36z M27.28,40.71v3.27c0,0.57-0.45,1.03-1.03,1.03h-4.44
		c-0.58,0-1.03-0.46-1.03-1.03v-3.27c0-0.57,0.45-1.03,1.03-1.03h4.44C26.83,39.68,27.28,40.14,27.28,40.71z M27.29,51.33
		c0,0.57-0.46,1.03-1.03,1.03h-4.45c-0.57,0-1.03-0.46-1.03-1.03v-3.27c0-0.57,0.46-1.03,1.03-1.03h4.45c0.57,0,1.03,0.46,1.03,1.03
		V51.33z M28.74,33.36c0-0.57,0.46-1.03,1.03-1.03h4.45c0.57,0,1.03,0.46,1.03,1.03v3.27c0,0.57-0.46,1.03-1.03,1.03h-4.45
		c-0.57,0-1.03-0.46-1.03-1.03V33.36z M35.25,40.71v3.27c0,0.57-0.45,1.03-1.03,1.03h-4.44c-0.57,0-1.03-0.46-1.03-1.03v-3.27
		c0-0.57,0.46-1.03,1.03-1.03h4.44C34.8,39.68,35.25,40.14,35.25,40.71z M35.26,58.68c0,0.57-0.46,1.03-1.03,1.03h-4.45
		c-0.57,0-1.03-0.46-1.03-1.03v-3.27c0-0.57,0.46-1.03,1.03-1.03h4.45c0.57,0,1.03,0.46,1.03,1.03V58.68z M35.26,51.33
		c0,0.57-0.46,1.03-1.03,1.03h-4.45c-0.57,0-1.03-0.46-1.03-1.03v-3.27c0-0.57,0.46-1.03,1.03-1.03h4.45c0.57,0,1.03,0.46,1.03,1.03
		V51.33z M43.23,51.33c0,0.57-0.46,1.03-1.03,1.03h-4.45c-0.57,0-1.03-0.46-1.03-1.03v-3.27c0-0.57,0.46-1.03,1.03-1.03h4.45
		c0.57,0,1.03,0.46,1.03,1.03V51.33z M43.23,43.98c0,0.57-0.46,1.03-1.03,1.03h-4.45c-0.57,0-1.03-0.46-1.03-1.03v-3.27
		c0-0.57,0.46-1.03,1.03-1.03h4.45c0.57,0,1.03,0.46,1.03,1.03V43.98z M43.23,8.59c0,0.57-0.46,1.03-1.03,1.03h-4.45
		c-0.57,0-1.03-0.46-1.03-1.03V5.33c0-0.58,0.46-1.03,1.03-1.03h4.45c0.57,0,1.03,0.45,1.03,1.03V8.59z"></path>
  <path d="M32 13.1c-.92 0-1.82.17-2.68.51l-.73.29 2.28 2.28.27-.05c.28-.05.57-.08.86-.08.29 0 .58.03.86.08l.27.05 2.29-2.28-.74-.29C33.82 13.27 32.92 13.1 32 13.1zM27.77 19.49l.05-.27-2.27-2.29-.29.73c-.69 1.74-.69 3.65 0 5.38l.29.73 2.28-2.28-.06-.27C27.65 20.67 27.65 20.09 27.77 19.49zM32.01 27.63c.92 0 1.83-.17 2.68-.52l.72-.29-2.28-2.29-.28.06c-.3.07-.59.1-.87.1-.26 0-.54-.03-.85-.09l-.27-.05-2.28 2.28.73.29C30.18 27.45 31.08 27.63 32.01 27.63zM38.47 16.95l-2.29 2.29.06.27c.12.56.12 1.13 0 1.71l-.06.27 2.29 2.28.29-.73c.68-1.73.68-3.63 0-5.36L38.47 16.95z"></path>
  <rect width="3.42" height="2.24" x="22.32" y="33.88"></rect>
  <rect width="3.42" height="2.24" x="30.29" y="33.88"></rect>
  <rect width="3.41" height="2.24" x="38.27" y="33.88"></rect>
  <rect width="3.41" height="2.24" x="22.33" y="41.23"></rect>
  <rect width="3.41" height="2.24" x="30.3" y="41.23"></rect>
  <rect width="3.42" height="2.24" x="38.27" y="41.23"></rect>
  <rect width="3.42" height="2.24" x="22.33" y="48.58"></rect>
  <rect width="3.42" height="2.24" x="30.3" y="48.58"></rect>
  <rect width="3.42" height="2.24" x="38.27" y="48.58"></rect>
  <rect width="3.42" height="2.24" x="30.3" y="55.93"></rect>
  <rect width="3.41" height="2.23" x="22.33" y="5.84"></rect>
  <rect width="3.42" height="2.23" x="38.27" y="5.84"></rect>
</svg>
