<svg xmlns="http://www.w3.org/2000/svg" xml:space="preserve" id="ac" x="0" y="0" style="enable-background:new 0 0 55 55" version="1.1" viewBox="0 0 55 55">
  <g>
    <path d="M48.75,10.0120544H6.25c-1.5200195,0-2.75,1.2299805-2.75,2.75v15.2599487c0,1.5200195,1.2299805,2.75,2.75,2.75h2.4399414
		h37.619873H48.75c1.5197754,0,2.75-1.2299805,2.75-2.75V12.7620544C51.5,11.2420349,50.2697754,10.0120544,48.75,10.0120544z
		 M50,28.0220032c0,0.6900024-0.5600586,1.25-1.25,1.25h-1.6901855v-1.7399902h-1.5H9.4399414h-1.5v1.7399902H6.25
		c-0.6901855,0-1.25-0.5599976-1.25-1.25V12.7620544c0-0.6900024,0.5598145-1.25,1.25-1.25h42.5
		c0.6899414,0,1.25,0.5599976,1.25,1.25V28.0220032z"></path>
    <path d="M44.3098145 22.7820129h-33.619873c-1.5200195 0-2.75 1.2300415-2.75 2.75v.5h1.5 36.119873 1.5v-.5C47.0598145 24.0120544 45.829834 22.7820129 44.3098145 22.7820129zM10.2099609 16.36203c.1999512 0 .3898926-.0700073.5400391-.2199707.1398926-.1400146.2099609-.3300171.2099609-.5300293 0-.0999756-.0200195-.1900024-.0500488-.2799683-.0400391-.1000366-.1000977-.1800537-.1599121-.25-.2202148-.210022-.550293-.2800293-.8200684-.1600342-.0900879.039978-.1799316.0900269-.25.1600342-.0700684.0699463-.1201172.1499634-.1601563.25-.0397949.0899658-.0598145.1799927-.0598145.2799683 0 .2000122.079834.3900146.2199707.5300293C9.829834 16.2920227 10.0197754 16.36203 10.2099609 16.36203zM13.6799316 16.36203c.1999512 0 .3898926-.0700073.5300293-.2199707.1398926-.1400146.2199707-.3300171.2199707-.5300293 0-.0999756-.0200195-.1900024-.0600586-.2799683-.0400391-.1000366-.0900879-.1800537-.1599121-.25-.0700684-.0700073-.1501465-.1200562-.2402344-.1600342-.1899414-.0800171-.3999023-.0800171-.579834 0-.0900879.039978-.170166.0900269-.2399902.1600342-.0700684.0699463-.130127.1499634-.1601563.25-.0400391.0899658-.0598145.1799927-.0598145.2799683 0 .2000122.079834.3900146.2199707.5300293C13.2897949 16.2920227 13.4799805 16.36203 13.6799316 16.36203zM23.3098145 18.7320251h8.380127c.4199219 0 .75-.3300171.75-.75 0-.4099731-.3300781-.75-.75-.75h-8.380127c-.4199219 0-.75.3400269-.75.75C22.5598145 18.4020081 22.8898926 18.7320251 23.3098145 18.7320251zM44.652832 36.4977112c0-1.1748047-.4575195-2.2792969-1.2885742-3.1103516-.2929688-.2929688-.7675781-.2929688-1.0605469 0s-.2929688.7675781 0 1.0605469c.5473633.5478516.8491211 1.2763672.8491211 2.0498047 0 .7744141-.3012695 1.5019531-.8491211 2.0498047-1.715332 1.7148438-1.715332 4.5058594 0 6.2207031.1464844.1464844.3383789.2197266.5302734.2197266s.3837891-.0732422.5302734-.2197266c.2929688-.2929688.2929688-.7675781 0-1.0605469-1.1303711-1.1298828-1.1303711-2.9697266 0-4.0996094C44.1953125 38.7770081 44.652832 37.6725159 44.652832 36.4977112zM35.6977539 33.3873596c-.2919922-.2929688-.7675781-.2929688-1.0605469 0s-.2929688.7675781 0 1.0605469c1.1298828 1.1308594 1.1298828 2.9697266 0 4.0996094-.8310547.8310547-1.2885742 1.9355469-1.2885742 3.1103516s.4575195 2.2792969 1.2885742 3.1103516c.1464844.1464844.3383789.2197266.5302734.2197266s.3837891-.0732422.5302734-.2197266c.2929688-.2929688.2929688-.7675781 0-1.0605469-.5478516-.5478516-.8491211-1.2753906-.8491211-2.0498047s.3012695-1.5019531.8491211-2.0498047C37.4121094 37.893219 37.4125977 35.1031799 35.6977539 33.3873596zM29.3193359 36.4977112c0-1.1748047-.4575195-2.2792969-1.2885742-3.1103516-.2929688-.2929688-.7675781-.2929688-1.0605469 0s-.2929688.7675781 0 1.0605469c.5473633.5478516.8491211 1.2763672.8491211 2.0498047 0 .7744141-.3012695 1.5019531-.8491211 2.0498047-1.715332 1.7148438-1.715332 4.5058594 0 6.2207031.1464844.1464844.3383789.2197266.5302734.2197266s.3837891-.0732422.5302734-.2197266c.2929688-.2929688.2929688-.7675781 0-1.0605469-1.1303711-1.1298828-1.1303711-2.9697266 0-4.0996094C28.8618164 38.7770081 29.3193359 37.6725159 29.3193359 36.4977112zM20.3642578 33.3873596c-.2919922-.2929688-.7675781-.2929688-1.0605469 0s-.2929688.7675781 0 1.0605469c1.1298828 1.1308594 1.1298828 2.9697266 0 4.0996094-.8310547.8310547-1.2885742 1.9355469-1.2885742 3.1103516s.4575195 2.2792969 1.2885742 3.1103516c.1464844.1464844.3383789.2197266.5302734.2197266s.3837891-.0732422.5302734-.2197266c.2929688-.2929688.2929688-.7675781 0-1.0605469-.5478516-.5478516-.8491211-1.2753906-.8491211-2.0498047s.3012695-1.5019531.8491211-2.0498047C22.0786133 37.893219 22.0791016 35.1031799 20.3642578 33.3873596zM12.6972656 33.3873596c-.2919922-.2929688-.7675781-.2929688-1.0605469 0s-.2929688.7675781 0 1.0605469c1.1298828 1.1308594 1.1298828 2.9697266 0 4.0996094-1.715332 1.7148438-1.715332 4.5058594 0 6.2207031.1464844.1464844.3383789.2197266.5302734.2197266s.3837891-.0732422.5302734-.2197266c.2929688-.2929688.2929688-.7675781 0-1.0605469-1.1303711-1.1298828-1.1303711-2.9697266 0-4.0996094C14.4116211 37.893219 14.4121094 35.1031799 12.6972656 33.3873596z"></path>
  </g>
</svg>
